<?xml version="1.0" standalone="no"?><!DOCTYPE svg PUBLIC "-//W3C//DTD SVG 1.1//EN"
        "http://www.w3.org/Graphics/SVG/1.1/DTD/svg11.dtd">
<svg t="1581865721140" class="icon" viewBox="0 0 1024 1024" version="1.1" xmlns="http://www.w3.org/2000/svg" p-id="1403"
     xmlns:xlink="http://www.w3.org/1999/xlink" width="200" height="200">
    <defs>
        <style type="text/css"></style>
    </defs>
    <path d="M401.066667 465.066667H162.133333c-36.266667 0-64-27.733333-64-64V162.133333c0-36.266667 27.733333-64 64-64h241.066667c36.266667 0 64 27.733333 64 64v241.066667c-2.133333 34.133333-29.866667 61.866667-66.133333 61.866667zM861.866667 465.066667H622.933333c-36.266667 0-64-27.733333-64-64V162.133333c0-36.266667 27.733333-64 64-64h241.066667c36.266667 0 64 27.733333 64 64v236.8c-2.133333 36.266667-29.866667 66.133333-66.133333 66.133334zM401.066667 925.866667H162.133333c-36.266667 0-64-27.733333-64-64V622.933333c0-36.266667 27.733333-64 64-64h241.066667c36.266667 0 64 27.733333 64 64v241.066667c-2.133333 34.133333-29.866667 61.866667-66.133333 61.866667zM861.866667 925.866667H622.933333c-36.266667 0-64-27.733333-64-64V622.933333c0-36.266667 27.733333-64 64-64h241.066667c36.266667 0 64 27.733333 64 64v241.066667c-2.133333 34.133333-29.866667 61.866667-66.133333 61.866667z"
          p-id="1404"></path>
</svg>