<?xml version="1.0" standalone="no"?><!DOCTYPE svg PUBLIC "-//W3C//DTD SVG 1.1//EN" "http://www.w3.org/Graphics/SVG/1.1/DTD/svg11.dtd"><svg t="1582041483985" class="icon" viewBox="0 0 1024 1024" version="1.1" xmlns="http://www.w3.org/2000/svg" p-id="1605" xmlns:xlink="http://www.w3.org/1999/xlink" width="200" height="200"><defs><style type="text/css"></style></defs><path d="M393.67111147 461.93777813H138.80888853c-38.6844448 0-68.26666667-29.58222187-68.26666666-68.26666666V138.80888853c0-38.6844448 29.58222187-68.26666667 68.26666666-68.26666666h257.13777814c38.6844448 0 68.26666667 29.58222187 68.26666666 68.26666666v257.13777814c-2.2755552 36.40888853-31.85777813 65.99111147-70.54222186 65.99111146zM885.19111147 461.93777813H630.32888853c-38.6844448 0-68.26666667-29.58222187-68.26666666-68.26666666V138.80888853c0-38.6844448 29.58222187-68.26666667 68.26666666-68.26666666h257.13777814c38.6844448 0 68.26666667 29.58222187 68.26666666 68.26666666v252.58666667c-2.2755552 38.6844448-31.85777813 70.54222187-70.54222186 70.54222293zM393.67111147 953.45777813H138.80888853c-38.6844448 0-68.26666667-29.58222187-68.26666666-68.26666666V630.32888853c0-38.6844448 29.58222187-68.26666667 68.26666666-68.26666666h257.13777814c38.6844448 0 68.26666667 29.58222187 68.26666666 68.26666666v257.13777814c-2.2755552 36.40888853-31.85777813 65.99111147-70.54222186 65.99111146zM885.19111147 953.45777813H630.32888853c-38.6844448 0-68.26666667-29.58222187-68.26666666-68.26666666V630.32888853c0-38.6844448 29.58222187-68.26666667 68.26666666-68.26666666h257.13777814c38.6844448 0 68.26666667 29.58222187 68.26666666 68.26666666v257.13777814c-2.2755552 36.40888853-31.85777813 65.99111147-70.54222186 65.99111146z" p-id="1606"></path></svg>